<?xml version="1.0" encoding="utf-8"?>
<!-- Generator: Adobe Illustrator 22.0.1, SVG Export Plug-In . SVG Version: 6.00 Build 0)  -->
<svg version="1.1" id="Capa_1" xmlns="http://www.w3.org/2000/svg" xmlns:xlink="http://www.w3.org/1999/xlink" x="0px" y="0px"
	 viewBox="0 0 150.3 137" style="enable-background:new 0 0 150.3 137;" xml:space="preserve">
<style type="text/css">
	.st0{fill:#00BDE7;stroke:#00BDE7;stroke-width:5;stroke-miterlimit:10;}
	.st1{fill:#5289b1;stroke:#5289b1;stroke-width:4;stroke-miterlimit:10;}
	.st2{fill:#E68855;stroke:#E68855;stroke-width:5;stroke-linecap:square;stroke-linejoin:round;stroke-miterlimit:10;}
</style>
<g id="pn">
	<g>
		<g>
			<g>
				<path class="st0" d="M19.9,124.7c0-17.6,0-38.1,0-55.7c0-1.5-0.1-3,0-4.5c0.1-1.4-0.2-3.3,1.9-3.4c2.3-0.2,3,1.2,3.3,3.3
					c0.2,1.2-1.7,7,3,2.1c7.2-7.6,16.1-8.5,25.1-4.6c9.3,4,13.2,12.4,13.1,22.1c-0.1,9.6-3.7,17.8-13,22.2c-8.9,4.3-17,2.7-24.5-3.5
					c-0.9-0.7-1.3-2.4-2.7-2c-1.9,0.6-1,2.5-1,3.8c0,5.7,0,14.5,0.1,20.2C24.6,126.6,20.1,126.4,19.9,124.7z M61.2,83.7
					C61,73.5,53,64.9,44,65c-9.6,0.2-17.6,9.2-17.3,19.5c0.3,10.3,8,18,17.8,17.8C54.1,102.3,61.4,94.1,61.2,83.7z"/>
				<path class="st1" d="M45.4,17.2c6.7-0.2,12.7,1.2,18.8,2.3c10.7,2.1,21.1,5.1,32,6.1c11.4,1,22.3,0.2,32.6-5.2
					c0.5-0.3,1.1-1,1.5-0.4c0.6,0.8-0.5,1.1-1,1.5c-10.2,8.3-22.1,10.2-34.9,9.2C81,29.8,68.2,26,55,23.8c-10.4-1.7-20.7-2.5-30.7,2
					c-1.5,0.7-2.9,1.4-4.2,2.3c-0.3,0.2-0.8,0.6-1.1,0.1c-0.1-0.2,0.2-0.8,0.4-1c4.6-4.5,10.1-7.5,16.4-9
					C39.1,17.4,42.4,17.1,45.4,17.2z"/>
				<path class="st2" d="M128.8,77c0,9.1,0,18.2,0,27.3c0,1.5,0.1,3.2-1.4,4c-2.2,1.2-3.4-0.6-4.5-1.9c-8-9.9-16-19.8-23.9-29.7
					c-5.3-6.6-10.5-13.3-15.7-20c-0.7-0.9-1.3-2.5-2.6-1.7c-0.6,0.4-0.6,2.1-0.6,3.2c0,15.2,0.9,30,1.1,45.2c0,2.1,0.1,4.8-3.2,5
					c-3,0.1-3.2-2.2-3.2-4.4c0-18.2,0-36.4-0.1-54.6c0-1.8-0.1-3.8,2.1-4.5c3.3-1,5,1.2,6.7,3.4c8.9,11.5,17.9,22.9,26.8,34.4
					c3.2,4.1,6.3,8.1,9.5,12.1c0.7,0.9,1.4,2.3,2.8,1.7c1.4-0.5,0.9-2,0.9-3.1c0-13,0-26.1,0-39.1c0-2.1,0-4.2,0-6.4
					c0.1-1.7,0.8-3.1,2.6-3.1c1.8,0,2.6,1.4,2.6,3.1c0,6.1,0,12.1,0,18.2C128.8,69.7,128.8,73.4,128.8,77z"/>
			</g>
		</g>
	</g>
</g>
</svg>
