<?xml version="1.0" encoding="UTF-8" standalone="no"?><!DOCTYPE svg PUBLIC "-//W3C//DTD SVG 1.1//EN" "http://www.w3.org/Graphics/SVG/1.1/DTD/svg11.dtd"><svg width="100%" height="100%" viewBox="0 0 71 15" version="1.1" xmlns="http://www.w3.org/2000/svg" xmlns:xlink="http://www.w3.org/1999/xlink" xml:space="preserve" xmlns:serif="http://www.serif.com/" style="fill-rule:evenodd;clip-rule:evenodd;stroke-linejoin:round;stroke-miterlimit:1.41421;"><path d="M70.307,2.157c-0.268,0 -0.356,0.263 -0.547,0.405c-0.319,0.318 -0.751,0.497 -1.202,0.497c-0.485,0 -0.947,-0.207 -1.269,-0.568c-0.513,-0.677 -0.396,-1.651 0.262,-2.187c0.286,-0.198 0.626,-0.304 0.974,-0.304c0.622,0 1.197,0.339 1.497,0.883c0.077,0.126 0.082,0.29 0.263,0.328l0.022,0.946Z" style="fill:#424244;fill-rule:nonzero;"/><path d="M36.991,0.774c2.114,-0.37 4.273,-0.399 6.396,-0.087c1.515,0.267 2.734,1 3.067,2.624c0.29,1.312 -0.36,2.394 -1.995,3.406c0.959,0.34 1.755,1.032 2.225,1.935c0.869,1.973 -0.191,4.193 -2.378,4.92c-2.187,0.727 -4.456,0.547 -6.703,0.432c-0.546,0 -0.617,-0.333 -0.617,-0.782c0.005,-4.084 0.005,-8.2 0.005,-12.448Zm3.051,11.114c1.35,0.039 2.618,0.186 3.466,-1.011c0.419,-0.549 0.405,-1.32 -0.033,-1.853c-0.886,-1.094 -2.132,-1.034 -3.433,-0.935l0,3.799Zm-0.055,-6.013c1.329,-0.071 2.57,0.207 3.28,-1.045c0.306,-0.48 0.235,-1.113 -0.169,-1.514c-0.88,-0.864 -1.968,-0.678 -3.127,-0.519l0,3.078l0.016,0Z" style="fill:#424244;fill-rule:nonzero;"/><path d="M10.58,0.976c-0.081,0.788 -0.264,1.562 -0.546,2.302c-2.335,-0.585 -4.713,-0.919 -6.189,1.542c-1.02,1.594 -0.957,3.663 0.159,5.193c1.52,2.187 3.756,1.76 5.937,1.329c0.415,0.683 0.306,1.448 0.546,2.104c-2.449,1.455 -6.844,0.793 -8.812,-1.279c-2.045,-2.187 -2.247,-6.27 -0.443,-8.906c1.804,-2.635 5.91,-3.668 9.348,-2.285Z" style="fill:#424244;fill-rule:nonzero;"/><path d="M25.265,4.322l3.023,0c0,1.378 0,2.734 0,4.144c-0.023,0.547 -0.011,1.095 0.038,1.64c0.115,0.913 0.459,1.706 1.575,1.64c1.115,-0.065 1.498,-0.749 1.514,-1.722c0,-1.514 0,-3.029 0,-4.543c-0.067,-0.395 -0.017,-0.802 0.142,-1.17l2.87,0l0,9.622c-0.763,0.115 -1.537,0.143 -2.307,0.082c-0.41,-0.284 -0.202,-0.754 -0.437,-1.137c-0.349,0.294 -0.714,0.568 -1.094,0.82c-2.23,1.367 -4.745,0.235 -5.231,-2.351c-0.076,-0.38 -0.116,-0.766 -0.121,-1.153c0.022,-1.947 0.028,-3.882 0.028,-5.872Z" style="fill:#424244;fill-rule:nonzero;"/><path d="M54.25,13.14c-0.632,0.602 -1.441,0.985 -2.307,1.094c-0.161,0.025 -0.324,0.038 -0.488,0.038c-1.703,0 -3.105,-1.402 -3.105,-3.105c0,-1.109 0.594,-2.136 1.554,-2.69c1.23,-0.787 2.635,-0.858 4.024,-0.968c-0.066,-1.552 -1.34,-1.776 -4.303,-0.738l-0.59,-1.859c2.066,-0.88 4.111,-1.273 6.199,-0.338c1.167,0.546 1.888,1.753 1.815,3.039c0.044,2.094 0,4.188 0,6.429c-0.82,-0.371 -2.061,0.689 -2.799,-0.902Zm-0.093,-3.706c-0.656,-0.104 -1.328,-0.009 -1.929,0.273c-0.771,0.377 -1.127,1.028 -0.678,1.804c0.448,0.776 1.23,0.694 1.924,0.268c0.858,-0.541 0.738,-1.411 0.683,-2.345Z" style="fill:#424244;fill-rule:nonzero;"/><path d="M20.421,5.897c0.88,-1.318 1.804,-2.051 3.28,-1.799c0.111,0.866 0.133,1.742 0.066,2.613c-0.328,0.257 -0.645,0.099 -0.941,0.126c-0.018,-0.001 -0.037,-0.001 -0.055,-0.001c-1.08,0 -1.968,0.888 -1.968,1.968c0,0.053 0.002,0.106 0.006,0.159c-0.038,1.641 0,3.281 0,4.921c-0.989,0.24 -1.941,0.054 -2.985,0.131l0,-9.66c0.815,-0.135 1.646,-0.152 2.466,-0.049l0.131,1.591Z" style="fill:#424244;fill-rule:nonzero;"/><path d="M59.575,4.3l2.334,0c0.307,0.448 0.115,0.946 0.307,1.52c0.732,-1.17 1.64,-1.946 3.127,-1.744c0.246,0.897 0.043,1.804 0.114,2.734c-2.487,0.153 -2.913,0.617 -2.913,3.088l0,4.002c-0.984,0.273 -1.936,0.071 -2.969,0.142l0,-9.742Z" style="fill:#424244;fill-rule:nonzero;"/><path d="M12.39,13.933l0,-9.605c0.963,-0.096 1.934,-0.096 2.897,0l0,9.61l-2.897,-0.005Z" style="fill:#424244;fill-rule:nonzero;"/><rect x="67.119" y="4.338" width="2.892" height="9.6" style="fill:#424244;fill-rule:nonzero;"/><path d="M13.806,3.054c-0.015,0 -0.029,0 -0.044,0c-0.838,0 -1.53,-0.682 -1.541,-1.52c0,-0.003 -0.001,-0.005 -0.001,-0.008c0,-0.822 0.677,-1.498 1.498,-1.498c0.03,0 0.059,0.001 0.088,0.003c0.05,-0.005 0.1,-0.008 0.15,-0.008c0.818,0 1.492,0.674 1.492,1.492c0,0.027 -0.001,0.053 -0.002,0.079c-0.033,0.813 -0.71,1.464 -1.524,1.464c-0.039,0 -0.077,-0.001 -0.116,-0.004Z" style="fill:#424244;fill-rule:nonzero;"/></svg>