<?xml version="1.0" encoding="UTF-8" standalone="no"?><!DOCTYPE svg PUBLIC "-//W3C//DTD SVG 1.1//EN" "http://www.w3.org/Graphics/SVG/1.1/DTD/svg11.dtd"><svg width="100%" height="100%" viewBox="0 0 83 115" version="1.1" xmlns="http://www.w3.org/2000/svg" xmlns:xlink="http://www.w3.org/1999/xlink" xml:space="preserve" xmlns:serif="http://www.serif.com/" style="fill-rule:evenodd;clip-rule:evenodd;stroke-linejoin:round;stroke-miterlimit:1.41421;"><ellipse cx="41.1" cy="9.065" rx="9.109" ry="9.065" style="fill:#418ff7;"/><path d="M40.282,21.001c6.188,0.043 10.83,1.148 15.029,3.826c0.85,0.527 1.811,1.028 1.581,2.193c-0.265,0.978 -1.146,1.672 -2.159,1.7c-1.183,0.22 -2.254,0.845 -3.026,1.768c-9.68,10.296 -9.755,26.527 -0.17,36.911c0.409,0.439 0.948,0.737 1.538,0.85c1.14,0.263 2.398,0.561 2.551,1.955c0.153,1.394 -1.216,1.845 -2.219,2.304c-7.591,3.4 -15.301,3.782 -23.037,0.527c-0.731,-0.284 -1.444,-0.613 -2.134,-0.986c-0.739,-0.425 -1.479,-0.935 -1.352,-1.956c0.115,-0.873 0.824,-1.557 1.701,-1.64c1.946,-0.204 2.864,-1.607 3.884,-2.916c8.16,-10.529 7.359,-25.605 -1.87,-35.21c-0.709,-0.831 -1.681,-1.394 -2.754,-1.598c-1.037,-0.17 -2.083,-0.604 -2.287,-1.769c-0.204,-1.164 0.799,-1.649 1.624,-2.15c3.947,-2.418 8.472,-3.733 13.1,-3.809Z" style="fill:#418ff7;fill-rule:nonzero;"/><path d="M28.109,74.641c-9.13,1.93 -16.356,-0.875 -21.975,-7.931c-8.501,-10.762 -8.118,-27.942 0.85,-38.347c5.534,-6.41 13.474,-8.934 21.482,-6.682c-2.831,0.595 -5.424,1.191 -7.728,2.551c-6.8,4.106 -10.379,10.328 -11.782,17.902c-1.649,8.884 0,17.095 5.611,24.313c2.938,3.919 7.224,6.618 12.028,7.574c0.57,-0.018 1.12,0.208 1.514,0.62Z" style="fill:#0094ff;fill-rule:nonzero;"/><path d="M54.929,74.701c12.555,-2.057 18.48,-13.168 19.458,-22.697c0.799,-7.719 -0.706,-14.945 -5.407,-21.252c-3.213,-4.327 -7.353,-7.294 -12.751,-8.289c-0.407,-0.086 -0.81,-0.194 -1.207,-0.323c-0.396,-0.128 -0.051,-0.076 -0.153,-0.238c5.636,-1.36 10.958,-0.799 15.829,2.338c7.149,4.591 10.83,11.425 11.901,19.645c1.326,9.895 -1.063,18.779 -8.331,25.911c-5.305,5.202 -11.757,6.92 -19.042,5.304c-0.068,-0.051 -0.119,-0.229 -0.297,-0.399Z" style="fill:#0094ff;fill-rule:nonzero;"/><path d="M82.867,98.092c-0.315,0 -0.418,0.309 -0.643,0.476c-0.375,0.375 -0.885,0.586 -1.415,0.586c-0.571,0 -1.115,-0.244 -1.495,-0.67c-0.603,-0.796 -0.465,-1.943 0.309,-2.574c0.337,-0.233 0.737,-0.358 1.147,-0.358c0.732,0 1.408,0.399 1.763,1.04c0.09,0.148 0.096,0.341 0.309,0.386l0.025,1.114Z" style="fill:#8e8888;fill-rule:nonzero;"/><path d="M43.644,98.394c2.488,-0.435 5.031,-0.47 7.53,-0.103c1.783,0.316 3.219,1.178 3.611,3.09c0.341,1.544 -0.425,2.819 -2.349,4.01c1.129,0.401 2.066,1.215 2.62,2.278c1.023,2.324 -0.226,4.937 -2.8,5.793c-2.575,0.856 -5.246,0.644 -7.891,0.508c-0.644,0 -0.728,-0.392 -0.728,-0.92c0.007,-4.808 0.007,-9.655 0.007,-14.656Zm3.591,13.085c1.59,0.046 3.083,0.219 4.081,-1.19c0.493,-0.646 0.477,-1.554 -0.039,-2.182c-1.042,-1.288 -2.51,-1.217 -4.042,-1.101l0,4.473Zm-0.064,-7.08c1.564,-0.083 3.025,0.245 3.862,-1.229c0.36,-0.565 0.276,-1.311 -0.2,-1.783c-1.036,-1.017 -2.317,-0.798 -3.681,-0.611l0,3.623l0.019,0Z" style="fill:#8e8888;fill-rule:nonzero;"/><path d="M12.549,98.632c-0.095,0.928 -0.312,1.839 -0.643,2.71c-2.749,-0.689 -5.549,-1.081 -7.286,1.815c-1.202,1.878 -1.127,4.314 0.186,6.115c1.79,2.574 4.422,2.072 6.99,1.564c0.489,0.804 0.361,1.705 0.644,2.478c-2.884,1.712 -8.059,0.933 -10.376,-1.506c-2.407,-2.575 -2.645,-7.383 -0.521,-10.485c2.124,-3.103 6.958,-4.319 11.006,-2.691Z" style="fill:#8e8888;fill-rule:nonzero;"/><path d="M29.838,102.571l3.559,0c0,1.622 0,3.219 0,4.879c-0.028,0.644 -0.012,1.289 0.045,1.931c0.135,1.075 0.541,2.008 1.854,1.931c1.313,-0.077 1.763,-0.882 1.783,-2.027c0,-1.783 0,-3.566 0,-5.349c-0.079,-0.466 -0.021,-0.944 0.167,-1.377l3.379,0l0,11.328c-0.899,0.136 -1.81,0.168 -2.716,0.096c-0.483,-0.334 -0.238,-0.888 -0.515,-1.339c-0.41,0.347 -0.84,0.669 -1.287,0.966c-2.626,1.609 -5.587,0.277 -6.16,-2.768c-0.089,-0.447 -0.137,-0.902 -0.142,-1.358c0.026,-2.291 0.033,-4.57 0.033,-6.913Z" style="fill:#8e8888;fill-rule:nonzero;"/><path d="M63.964,112.953c-0.745,0.709 -1.697,1.16 -2.717,1.288c-0.19,0.03 -0.382,0.045 -0.574,0.045c-2.006,0 -3.656,-1.65 -3.656,-3.656c0,-1.305 0.699,-2.515 1.83,-3.167c1.448,-0.927 3.102,-1.01 4.737,-1.139c-0.077,-1.828 -1.577,-2.092 -5.066,-0.869l-0.695,-2.188c2.433,-1.037 4.84,-1.5 7.299,-0.399c1.374,0.643 2.222,2.064 2.137,3.578c0.052,2.465 0,4.93 0,7.569c-0.965,-0.437 -2.426,0.811 -3.295,-1.062Zm-0.11,-4.364c-0.772,-0.121 -1.564,-0.009 -2.272,0.322c-0.907,0.444 -1.326,1.21 -0.798,2.124c0.528,0.914 1.448,0.818 2.266,0.316c1.01,-0.637 0.869,-1.661 0.804,-2.762Z" style="fill:#8e8888;fill-rule:nonzero;"/><path d="M24.135,104.425c1.036,-1.551 2.124,-2.414 3.862,-2.117c0.131,1.02 0.157,2.051 0.077,3.076c-0.386,0.303 -0.76,0.116 -1.107,0.148c-0.022,0 -0.044,-0.001 -0.066,-0.001c-1.271,0 -2.317,1.046 -2.317,2.317c0,0.063 0.003,0.126 0.008,0.188c-0.045,1.931 0,3.862 0,5.793c-1.165,0.283 -2.285,0.064 -3.514,0.154l0,-11.373c0.959,-0.159 1.937,-0.179 2.902,-0.058l0.155,1.873Z" style="fill:#8e8888;fill-rule:nonzero;"/><path d="M70.233,102.546l2.748,0c0.36,0.527 0.135,1.113 0.36,1.789c0.863,-1.377 1.931,-2.291 3.682,-2.053c0.29,1.055 0.052,2.124 0.135,3.218c-2.928,0.18 -3.43,0.727 -3.43,3.637l0,4.711c-1.159,0.322 -2.279,0.084 -3.495,0.167l0,-11.469Z" style="fill:#8e8888;fill-rule:nonzero;"/><path d="M14.68,113.887l0,-11.309c1.134,-0.113 2.277,-0.113 3.411,0l0,11.315l-3.411,-0.006Z" style="fill:#8e8888;fill-rule:nonzero;"/><rect x="79.115" y="102.591" width="3.405" height="11.302" style="fill:#8e8888;fill-rule:nonzero;"/><path d="M16.347,99.147c-0.017,0.001 -0.035,0.001 -0.052,0.001c-0.986,0 -1.801,-0.804 -1.815,-1.79c0,-0.003 0,-0.006 0,-0.01c0,-0.967 0.796,-1.763 1.764,-1.763c0.034,0 0.069,0.001 0.103,0.003c0.058,-0.006 0.117,-0.009 0.176,-0.009c0.964,0 1.757,0.793 1.757,1.757c0,0.031 -0.001,0.062 -0.002,0.093c-0.039,0.957 -0.837,1.723 -1.795,1.723c-0.045,0 -0.091,-0.001 -0.136,-0.005Z" style="fill:#8e8888;fill-rule:nonzero;"/></svg>