<?xml version="1.0" encoding="UTF-8" standalone="no"?>
<!DOCTYPE svg PUBLIC "-//W3C//DTD SVG 1.1//EN" "http://www.w3.org/Graphics/SVG/1.1/DTD/svg11.dtd">
    <svg width="100%" height="100%" viewBox="0 0 134 102" version="1.1" xmlns="http://www.w3.org/2000/svg" xmlns:xlink="http://www.w3.org/1999/xlink" xml:space="preserve" 
    xmlns:serif="http://www.serif.com/" 
    style="fill-rule:evenodd;clip-rule:evenodd;stroke-linejoin:round;stroke-miterlimit:1.41421;">
    
    <g id="GjgB3K.tif"><ellipse cx="66.553" cy="13.998" rx="10.716" ry="10.663" style="fill:#455577;"/>
    <path d="M65.59,28.04c7.28,0.05 12.74,1.35 17.68,4.5c1,0.62 2.13,1.21 1.86,2.58c-0.312,1.151 -1.348,1.967 
            -2.54,2c-1.392,0.258 -2.651,0.994 -3.56,2.08c-11.387,12.111 -11.475,31.205 -0.2,43.42c0.482,0.517 
            1.116,0.867 1.81,1c1.34,0.31 2.82,0.66 3,2.3c0.18,1.64 -1.43,2.17 -2.61,2.71c-8.93,4 -18,4.45 
            -27.1,0.62c-0.86,-0.334 -1.698,-0.721 -2.51,-1.16c-0.87,-0.5 -1.74,-1.1 -1.59,-2.3c0.135,-1.027 
            0.969,-1.832 2,-1.93c2.29,-0.24 3.37,-1.89 4.57,-3.43c9.599,-12.386 8.657,-30.121 -2.2,-41.42c-0.835,-0.977 
            -1.978,-1.64 -3.24,-1.88c-1.22,-0.2 -2.45,-0.71 -2.69,-2.08c-0.24,-1.37 0.94,-1.94 1.91,-2.53c4.643,-2.844 
            9.966,-4.391 15.41,-4.48Z" style="fill:#2f446e;fill-rule:nonzero;"/>
    <path d="M51.27,91.14c-10.74,2.27 -19.24,-1.03 -25.85,-9.33c-10,-12.66 -9.55,-32.87 
        1,-45.11c6.51,-7.54 15.85,-10.51 25.27,-7.86c-3.33,0.7 -6.38,1.4 -9.09,3c-8,4.83 
        -12.21,12.15 -13.86,21.06c-1.94,10.45 0,20.11 6.6,28.6c3.457,4.611 8.498,7.785 
        14.15,8.91c0.67,-0.021 1.318,0.245 1.78,0.73Z" style="fill:#636570;fill-rule:nonzero;"/>
    <path d="M82.82,91.21c14.77,-2.42 21.74,-15.49 22.89,-26.7c0.94,-9.08 -0.83,-17.58 -6.36,-25c-3.78,-5.09 
        -8.65,-8.58 -15,-9.75c-0.48,-0.102 -0.954,-0.229 -1.42,-0.38c-0.466,-0.151 -0.06,-0.09 -0.18,-0.28c6.63,-1.6 
        12.89,-0.94 18.62,2.75c8.41,5.4 12.74,13.44 14,23.11c1.56,11.64 -1.25,22.09 -9.8,30.48c-6.24,6.12 -13.83,8.14 
        -22.4,6.24c-0.08,-0.06 -0.14,-0.27 -0.35,-0.47Z" style="fill:#636570;fill-rule:nonzero;"/>
    </g>
</svg>